<svg width="50" height="50" viewBox="0 0 50 50" fill="none" xmlns="http://www.w3.org/2000/svg">
<path d="M46.875 10.1856C47.5694 10.1856 48.1674 10.4364 48.669 10.9379C49.1705 11.4395 49.4213 11.9989 49.4213 12.6162V49.6532L39.4676 39.8153H12.3843C11.6898 39.8153 11.0918 39.5645 10.5903 39.0629C10.0887 38.5614 9.83796 38.002 9.83796 37.3847V32.4078H42.0139V10.1856H46.875ZM37.037 25.0004C37.037 25.6949 36.7863 26.2736 36.2847 26.7365C35.7832 27.1995 35.2238 27.431 34.6065 27.431H9.83796L0 37.3847V2.77821C0 2.08377 0.250772 1.50506 0.752315 1.0421C1.25386 0.579138 1.81327 0.347656 2.43056 0.347656H34.6065C35.2238 0.347656 35.7832 0.579138 36.2847 1.0421C36.7863 1.50506 37.037 2.08377 37.037 2.77821V25.0004Z" fill="black"/>
</svg>
