<svg width="50" height="36" viewBox="0 0 50 36" fill="none" xmlns="http://www.w3.org/2000/svg">
<path d="M32.8125 18C32.8125 20.072 31.9894 22.0591 30.5243 23.5243C29.0591 24.9894 27.072 25.8125 25 25.8125C22.928 25.8125 20.9409 24.9894 19.4757 23.5243C18.0106 22.0591 17.1875 20.072 17.1875 18C17.1875 15.928 18.0106 13.9409 19.4757 12.4757C20.9409 11.0106 22.928 10.1875 25 10.1875C27.072 10.1875 29.0591 11.0106 30.5243 12.4757C31.9894 13.9409 32.8125 15.928 32.8125 18V18Z" fill="black"/>
<path d="M0 18C0 18 9.375 0.8125 25 0.8125C40.625 0.8125 50 18 50 18C50 18 40.625 35.1875 25 35.1875C9.375 35.1875 0 18 0 18ZM25 28.9375C27.9008 28.9375 30.6828 27.7852 32.734 25.734C34.7852 23.6828 35.9375 20.9008 35.9375 18C35.9375 15.0992 34.7852 12.3172 32.734 10.266C30.6828 8.21484 27.9008 7.0625 25 7.0625C22.0992 7.0625 19.3172 8.21484 17.266 10.266C15.2148 12.3172 14.0625 15.0992 14.0625 18C14.0625 20.9008 15.2148 23.6828 17.266 25.734C19.3172 27.7852 22.0992 28.9375 25 28.9375V28.9375Z" fill="black"/>
</svg>
